<?xml version="1.0" encoding="UTF-8" standalone="no"?>
<!DOCTYPE svg PUBLIC "-//W3C//DTD SVG 1.1//EN"
 "http://www.w3.org/Graphics/SVG/1.1/DTD/svg11.dtd">
<!-- Generated by graphviz version 2.44.1 (20200629.0846)
 -->
<!-- Title: dependencies Pages: 1 -->
<svg width="1763pt" height="211pt"
 viewBox="0.00 0.00 1763.00 211.00" xmlns="http://www.w3.org/2000/svg" xmlns:xlink="http://www.w3.org/1999/xlink">
<g id="graph0" class="graph" transform="scale(1 1) rotate(0) translate(4 207)">
<title>dependencies</title>
<polygon fill="white" stroke="transparent" points="-4,4 -4,-207 1759,-207 1759,4 -4,4"/>
<text text-anchor="start" x="856.51" y="-42.4" font-family="sans-serif" font-weight="bold" font-size="14.00">Legend</text>
<polygon fill="#ffffb3" stroke="transparent" points="643.5,-10 643.5,-30 663.5,-30 663.5,-10 643.5,-10"/>
<text text-anchor="start" x="667.13" y="-15.4" font-family="sans-serif" font-size="14.00"> &#160;Declarations</text>
<polygon fill="#8dd3c7" stroke="transparent" points="756.5,-10 756.5,-30 776.5,-30 776.5,-10 756.5,-10"/>
<text text-anchor="start" x="780.23" y="-15.4" font-family="sans-serif" font-size="14.00"> &#160;Module</text>
<polygon fill="#80b1d3" stroke="transparent" points="842.5,-10 842.5,-30 862.5,-30 862.5,-10 842.5,-10"/>
<text text-anchor="start" x="866.28" y="-15.4" font-family="sans-serif" font-size="14.00"> &#160;Bootstrap</text>
<polygon fill="#fdb462" stroke="transparent" points="939.5,-10 939.5,-30 959.5,-30 959.5,-10 939.5,-10"/>
<text text-anchor="start" x="963.17" y="-15.4" font-family="sans-serif" font-size="14.00"> &#160;Providers</text>
<polygon fill="#fb8072" stroke="transparent" points="1035.5,-10 1035.5,-30 1055.5,-30 1055.5,-10 1035.5,-10"/>
<text text-anchor="start" x="1059.23" y="-15.4" font-family="sans-serif" font-size="14.00"> &#160;Exports</text>
<g id="clust1" class="cluster">
<title>cluster_SettingsModule</title>
<polygon fill="none" stroke="black" stroke-dasharray="1,5" points="8,-70 8,-195 1747,-195 1747,-70 8,-70"/>
</g>
<g id="clust12" class="cluster">
<title>cluster_SettingsModule_providers</title>
<polygon fill="none" stroke="black" points="1581,-78 1581,-130 1739,-130 1739,-78 1581,-78"/>
</g>
<g id="clust9" class="cluster">
<title>cluster_SettingsModule_imports</title>
<polygon fill="none" stroke="black" points="1193,-78 1193,-130 1573,-130 1573,-78 1193,-78"/>
</g>
<g id="clust2" class="cluster">
<title>cluster_SettingsModule_declarations</title>
<polygon fill="none" stroke="black" points="16,-78 16,-130 1185,-130 1185,-78 16,-78"/>
</g>
<!-- MainErrorComponent -->
<g id="node1" class="node">
<title>MainErrorComponent</title>
<polygon fill="#ffffb3" stroke="black" points="1177.42,-122 1036.58,-122 1036.58,-86 1177.42,-86 1177.42,-122"/>
<text text-anchor="middle" x="1107" y="-99.8" font-family="Times,serif" font-size="14.00">MainErrorComponent</text>
</g>
<!-- SettingsModule -->
<g id="node7" class="node">
<title>SettingsModule</title>
<polygon fill="#8dd3c7" stroke="black" points="1002.16,-187 999.16,-191 978.16,-191 975.16,-187 897.84,-187 897.84,-151 1002.16,-151 1002.16,-187"/>
<text text-anchor="middle" x="950" y="-164.8" font-family="Times,serif" font-size="14.00">SettingsModule</text>
</g>
<!-- MainErrorComponent&#45;&gt;SettingsModule -->
<g id="edge1" class="edge">
<title>MainErrorComponent&#45;&gt;SettingsModule</title>
<path fill="none" stroke="black" d="M1107,-122.01C1107,-138.05 1107,-159 1107,-159 1107,-159 1012.28,-159 1012.28,-159"/>
<polygon fill="black" stroke="black" points="1012.28,-155.5 1002.28,-159 1012.28,-162.5 1012.28,-155.5"/>
</g>
<!-- MainRootComponent -->
<g id="node2" class="node">
<title>MainRootComponent</title>
<polygon fill="#ffffb3" stroke="black" points="1019.11,-122 880.89,-122 880.89,-86 1019.11,-86 1019.11,-122"/>
<text text-anchor="middle" x="950" y="-99.8" font-family="Times,serif" font-size="14.00">MainRootComponent</text>
</g>
<!-- MainRootComponent&#45;&gt;SettingsModule -->
<g id="edge2" class="edge">
<title>MainRootComponent&#45;&gt;SettingsModule</title>
<path fill="none" stroke="black" d="M950,-122.11C950,-122.11 950,-140.99 950,-140.99"/>
<polygon fill="black" stroke="black" points="946.5,-140.99 950,-150.99 953.5,-140.99 946.5,-140.99"/>
</g>
<!-- MainScrollToTopComponent -->
<g id="node3" class="node">
<title>MainScrollToTopComponent</title>
<polygon fill="#ffffb3" stroke="black" points="863.43,-122 680.57,-122 680.57,-86 863.43,-86 863.43,-122"/>
<text text-anchor="middle" x="772" y="-99.8" font-family="Times,serif" font-size="14.00">MainScrollToTopComponent</text>
</g>
<!-- MainScrollToTopComponent&#45;&gt;SettingsModule -->
<g id="edge3" class="edge">
<title>MainScrollToTopComponent&#45;&gt;SettingsModule</title>
<path fill="none" stroke="black" d="M772,-122.01C772,-138.05 772,-159 772,-159 772,-159 887.56,-159 887.56,-159"/>
<polygon fill="black" stroke="black" points="887.56,-162.5 897.56,-159 887.56,-155.5 887.56,-162.5"/>
</g>
<!-- MainToolbarAvatarComponent -->
<g id="node4" class="node">
<title>MainToolbarAvatarComponent</title>
<polygon fill="#ffffb3" stroke="black" points="662.79,-122 469.21,-122 469.21,-86 662.79,-86 662.79,-122"/>
<text text-anchor="middle" x="566" y="-99.8" font-family="Times,serif" font-size="14.00">MainToolbarAvatarComponent</text>
</g>
<!-- MainToolbarAvatarComponent&#45;&gt;SettingsModule -->
<g id="edge4" class="edge">
<title>MainToolbarAvatarComponent&#45;&gt;SettingsModule</title>
<path fill="none" stroke="black" d="M566,-122.27C566,-140.56 566,-166 566,-166 566,-166 887.81,-166 887.81,-166"/>
<polygon fill="black" stroke="black" points="887.81,-169.5 897.81,-166 887.81,-162.5 887.81,-169.5"/>
</g>
<!-- MainToolbarMailComponent -->
<g id="node5" class="node">
<title>MainToolbarMailComponent</title>
<polygon fill="#ffffb3" stroke="black" points="451.64,-122 270.36,-122 270.36,-86 451.64,-86 451.64,-122"/>
<text text-anchor="middle" x="361" y="-99.8" font-family="Times,serif" font-size="14.00">MainToolbarMailComponent</text>
</g>
<!-- MainToolbarMailComponent&#45;&gt;SettingsModule -->
<g id="edge5" class="edge">
<title>MainToolbarMailComponent&#45;&gt;SettingsModule</title>
<path fill="none" stroke="black" d="M361,-122.13C361,-142.57 361,-173 361,-173 361,-173 887.73,-173 887.73,-173"/>
<polygon fill="black" stroke="black" points="887.73,-176.5 897.73,-173 887.73,-169.5 887.73,-176.5"/>
</g>
<!-- MainToolbarNotificationsComponent -->
<g id="node6" class="node">
<title>MainToolbarNotificationsComponent</title>
<polygon fill="#ffffb3" stroke="black" points="252.29,-122 23.71,-122 23.71,-86 252.29,-86 252.29,-122"/>
<text text-anchor="middle" x="138" y="-99.8" font-family="Times,serif" font-size="14.00">MainToolbarNotificationsComponent</text>
</g>
<!-- MainToolbarNotificationsComponent&#45;&gt;SettingsModule -->
<g id="edge6" class="edge">
<title>MainToolbarNotificationsComponent&#45;&gt;SettingsModule</title>
<path fill="none" stroke="black" d="M138,-122.01C138,-144.49 138,-180 138,-180 138,-180 887.66,-180 887.66,-180"/>
<polygon fill="black" stroke="black" points="887.66,-183.5 897.66,-180 887.66,-176.5 887.66,-183.5"/>
</g>
<!-- MpgpFormControlErrorModule -->
<g id="node8" class="node">
<title>MpgpFormControlErrorModule</title>
<polygon fill="#8dd3c7" stroke="black" points="1564.64,-122 1561.64,-126 1540.64,-126 1537.64,-122 1369.36,-122 1369.36,-86 1564.64,-86 1564.64,-122"/>
<text text-anchor="middle" x="1467" y="-99.8" font-family="Times,serif" font-size="14.00">MpgpFormControlErrorModule</text>
</g>
<!-- MpgpFormControlErrorModule&#45;&gt;SettingsModule -->
<g id="edge7" class="edge">
<title>MpgpFormControlErrorModule&#45;&gt;SettingsModule</title>
<path fill="none" stroke="black" d="M1467,-122.13C1467,-142.57 1467,-173 1467,-173 1467,-173 1012.42,-173 1012.42,-173"/>
<polygon fill="black" stroke="black" points="1012.42,-169.5 1002.42,-173 1012.42,-176.5 1012.42,-169.5"/>
</g>
<!-- SettingsRoutingModule -->
<g id="node9" class="node">
<title>SettingsRoutingModule</title>
<polygon fill="#8dd3c7" stroke="black" points="1350.78,-122 1347.78,-126 1326.78,-126 1323.78,-122 1201.22,-122 1201.22,-86 1350.78,-86 1350.78,-122"/>
<text text-anchor="middle" x="1276" y="-99.8" font-family="Times,serif" font-size="14.00">SettingsRoutingModule</text>
</g>
<!-- SettingsRoutingModule&#45;&gt;SettingsModule -->
<g id="edge8" class="edge">
<title>SettingsRoutingModule&#45;&gt;SettingsModule</title>
<path fill="none" stroke="black" d="M1276,-122.27C1276,-140.56 1276,-166 1276,-166 1276,-166 1012.38,-166 1012.38,-166"/>
<polygon fill="black" stroke="black" points="1012.38,-162.5 1002.38,-166 1012.38,-169.5 1012.38,-162.5"/>
</g>
<!-- ManageService -->
<g id="node10" class="node">
<title>ManageService</title>
<ellipse fill="#fdb462" stroke="black" cx="1660" cy="-104" rx="71.19" ry="18"/>
<text text-anchor="middle" x="1660" y="-99.8" font-family="Times,serif" font-size="14.00">ManageService</text>
</g>
<!-- ManageService&#45;&gt;SettingsModule -->
<g id="edge9" class="edge">
<title>ManageService&#45;&gt;SettingsModule</title>
<path fill="none" stroke="black" d="M1660,-122.01C1660,-144.49 1660,-180 1660,-180 1660,-180 1012.21,-180 1012.21,-180"/>
<polygon fill="black" stroke="black" points="1012.21,-176.5 1002.21,-180 1012.21,-183.5 1012.21,-176.5"/>
</g>
</g>
</svg>
