<?xml version="1.0" encoding="UTF-8" standalone="no"?>
<!DOCTYPE svg PUBLIC "-//W3C//DTD SVG 1.1//EN"
 "http://www.w3.org/Graphics/SVG/1.1/DTD/svg11.dtd">
<!-- Generated by graphviz version 2.44.1 (20200629.0846)
 -->
<!-- Title: dependencies Pages: 1 -->
<svg width="3165pt" height="374pt"
 viewBox="0.00 0.00 3165.00 374.00" xmlns="http://www.w3.org/2000/svg" xmlns:xlink="http://www.w3.org/1999/xlink">
<g id="graph0" class="graph" transform="scale(1 1) rotate(0) translate(4 370)">
<title>dependencies</title>
<polygon fill="white" stroke="transparent" points="-4,4 -4,-370 3161,-370 3161,4 -4,4"/>
<text text-anchor="start" x="1557.51" y="-42.4" font-family="sans-serif" font-weight="bold" font-size="14.00">Legend</text>
<polygon fill="#ffffb3" stroke="transparent" points="1344.5,-10 1344.5,-30 1364.5,-30 1364.5,-10 1344.5,-10"/>
<text text-anchor="start" x="1368.13" y="-15.4" font-family="sans-serif" font-size="14.00"> &#160;Declarations</text>
<polygon fill="#8dd3c7" stroke="transparent" points="1457.5,-10 1457.5,-30 1477.5,-30 1477.5,-10 1457.5,-10"/>
<text text-anchor="start" x="1481.23" y="-15.4" font-family="sans-serif" font-size="14.00"> &#160;Module</text>
<polygon fill="#80b1d3" stroke="transparent" points="1543.5,-10 1543.5,-30 1563.5,-30 1563.5,-10 1543.5,-10"/>
<text text-anchor="start" x="1567.28" y="-15.4" font-family="sans-serif" font-size="14.00"> &#160;Bootstrap</text>
<polygon fill="#fdb462" stroke="transparent" points="1640.5,-10 1640.5,-30 1660.5,-30 1660.5,-10 1640.5,-10"/>
<text text-anchor="start" x="1664.17" y="-15.4" font-family="sans-serif" font-size="14.00"> &#160;Providers</text>
<polygon fill="#fb8072" stroke="transparent" points="1736.5,-10 1736.5,-30 1756.5,-30 1756.5,-10 1736.5,-10"/>
<text text-anchor="start" x="1760.23" y="-15.4" font-family="sans-serif" font-size="14.00"> &#160;Exports</text>
<g id="clust1" class="cluster">
<title>cluster_AccountModule</title>
<polygon fill="none" stroke="black" stroke-dasharray="1,5" points="8,-70 8,-206 1583,-206 1583,-70 8,-70"/>
</g>
<g id="clust2" class="cluster">
<title>cluster_AccountModule_declarations</title>
<polygon fill="none" stroke="black" points="406,-78 406,-130 1575,-130 1575,-78 406,-78"/>
</g>
<g id="clust9" class="cluster">
<title>cluster_AccountModule_imports</title>
<polygon fill="none" stroke="black" points="16,-78 16,-130 398,-130 398,-78 16,-78"/>
</g>
<g id="clust19" class="cluster">
<title>cluster_AppModule</title>
<polygon fill="none" stroke="black" stroke-dasharray="1,5" points="2067,-146 2067,-358 2423,-358 2423,-146 2067,-146"/>
</g>
<g id="clust20" class="cluster">
<title>cluster_AppModule_declarations</title>
<polygon fill="none" stroke="black" points="2075,-154 2075,-206 2197,-206 2197,-154 2075,-154"/>
</g>
<g id="clust22" class="cluster">
<title>cluster_AppModule_imports</title>
<polygon fill="none" stroke="black" points="2205,-154 2205,-206 2415,-206 2415,-154 2205,-154"/>
</g>
<g id="clust24" class="cluster">
<title>cluster_AppModule_bootstrap</title>
<polygon fill="none" stroke="black" points="2196,-298 2196,-350 2320,-350 2320,-298 2196,-298"/>
</g>
<g id="clust26" class="cluster">
<title>cluster_CoreModule</title>
<polygon fill="none" stroke="black" stroke-dasharray="1,5" points="2101,-70 2101,-138 2423,-138 2423,-70 2101,-70"/>
</g>
<g id="clust31" class="cluster">
<title>cluster_CoreModule_providers</title>
<polygon fill="none" stroke="black" points="2109,-78 2109,-130 2415,-130 2415,-78 2109,-78"/>
</g>
<g id="clust32" class="cluster">
<title>cluster_GeneralModule</title>
<polygon fill="none" stroke="black" stroke-dasharray="1,5" points="2431,-70 2431,-206 2611,-206 2611,-70 2431,-70"/>
</g>
<g id="clust40" class="cluster">
<title>cluster_GeneralModule_imports</title>
<polygon fill="none" stroke="black" points="2439,-78 2439,-130 2603,-130 2603,-78 2439,-78"/>
</g>
<g id="clust50" class="cluster">
<title>cluster_MainModule</title>
<polygon fill="none" stroke="black" stroke-dasharray="1,5" points="2431,-222 2431,-290 2763,-290 2763,-222 2431,-222"/>
</g>
<g id="clust58" class="cluster">
<title>cluster_MainModule_imports</title>
<polygon fill="none" stroke="black" points="2605,-230 2605,-282 2755,-282 2755,-230 2605,-230"/>
</g>
<g id="clust59" class="cluster">
<title>cluster_MainModule_exports</title>
<polygon fill="none" stroke="black" points="2439,-230 2439,-282 2597,-282 2597,-230 2439,-230"/>
</g>
<g id="clust68" class="cluster">
<title>cluster_MpgpFormControlErrorModule</title>
<polygon fill="none" stroke="black" stroke-dasharray="1,5" points="1591,-146 1591,-214 2059,-214 2059,-146 1591,-146"/>
</g>
<g id="clust69" class="cluster">
<title>cluster_MpgpFormControlErrorModule_declarations</title>
<polygon fill="none" stroke="black" points="1831,-154 1831,-206 2051,-206 2051,-154 1831,-154"/>
</g>
<g id="clust72" class="cluster">
<title>cluster_MpgpFormControlErrorModule_exports</title>
<polygon fill="none" stroke="black" points="1599,-154 1599,-206 1823,-206 1823,-154 1599,-154"/>
</g>
<g id="clust75" class="cluster">
<title>cluster_ProfileModule</title>
<polygon fill="none" stroke="black" stroke-dasharray="1,5" points="2619,-70 2619,-206 2793,-206 2793,-70 2619,-70"/>
</g>
<g id="clust83" class="cluster">
<title>cluster_ProfileModule_imports</title>
<polygon fill="none" stroke="black" points="2627,-78 2627,-130 2785,-130 2785,-78 2627,-78"/>
</g>
<g id="clust93" class="cluster">
<title>cluster_SettingsModule</title>
<polygon fill="none" stroke="black" stroke-dasharray="1,5" points="2801,-70 2801,-206 3149,-206 3149,-70 2801,-70"/>
</g>
<g id="clust101" class="cluster">
<title>cluster_SettingsModule_imports</title>
<polygon fill="none" stroke="black" points="2975,-78 2975,-130 3141,-130 3141,-78 2975,-78"/>
</g>
<g id="clust104" class="cluster">
<title>cluster_SettingsModule_providers</title>
<polygon fill="none" stroke="black" points="2809,-78 2809,-130 2967,-130 2967,-78 2809,-78"/>
</g>
<!-- MainErrorComponent -->
<g id="node1" class="node">
<title>MainErrorComponent</title>
<polygon fill="#ffffb3" stroke="black" points="710.42,-122 569.58,-122 569.58,-86 710.42,-86 710.42,-122"/>
<text text-anchor="middle" x="640" y="-99.8" font-family="Times,serif" font-size="14.00">MainErrorComponent</text>
</g>
<!-- AccountModule -->
<g id="node7" class="node">
<title>AccountModule</title>
<polygon fill="#8dd3c7" stroke="black" points="794.48,-198 791.48,-202 770.48,-202 767.48,-198 687.52,-198 687.52,-162 794.48,-162 794.48,-198"/>
<text text-anchor="middle" x="741" y="-175.8" font-family="Times,serif" font-size="14.00">AccountModule</text>
</g>
<!-- MainErrorComponent&#45;&gt;AccountModule -->
<g id="edge1" class="edge">
<title>MainErrorComponent&#45;&gt;AccountModule</title>
<path fill="none" stroke="black" d="M691.29,-122.01C691.29,-122.01 691.29,-151.85 691.29,-151.85"/>
<polygon fill="black" stroke="black" points="687.79,-151.85 691.29,-161.85 694.79,-151.85 687.79,-151.85"/>
</g>
<!-- MainModule -->
<g id="node13" class="node">
<title>MainModule</title>
<polygon fill="#8dd3c7" stroke="black" points="2302.6,-198 2299.6,-202 2278.6,-202 2275.6,-198 2213.4,-198 2213.4,-162 2302.6,-162 2302.6,-198"/>
<text text-anchor="middle" x="2258" y="-175.8" font-family="Times,serif" font-size="14.00">MainModule</text>
</g>
<!-- MainErrorComponent&#45;&gt;MainModule -->
<g id="edge22" class="edge">
<title>MainErrorComponent&#45;&gt;MainModule</title>
<path fill="none" stroke="black" d="M695.08,-122.28C695.08,-137.95 695.08,-158 695.08,-158 695.08,-158 2217.68,-158 2217.68,-158 2217.68,-158 2217.68,-158.38 2217.68,-158.38"/>
<polygon fill="black" stroke="black" points="2214.18,-151.83 2217.68,-161.83 2221.18,-151.83 2214.18,-151.83"/>
</g>
<!-- GeneralModule -->
<g id="node17" class="node">
<title>GeneralModule</title>
<polygon fill="#8dd3c7" stroke="black" points="2542.85,-198 2539.85,-202 2518.85,-202 2515.85,-198 2439.15,-198 2439.15,-162 2542.85,-162 2542.85,-198"/>
<text text-anchor="middle" x="2491" y="-175.8" font-family="Times,serif" font-size="14.00">GeneralModule</text>
</g>
<!-- MainErrorComponent&#45;&gt;GeneralModule -->
<g id="edge15" class="edge">
<title>MainErrorComponent&#45;&gt;GeneralModule</title>
<path fill="none" stroke="black" d="M698.86,-122.1C698.86,-133.09 698.86,-145 698.86,-145 698.86,-145 2478.65,-145 2478.65,-145 2478.65,-145 2478.65,-151.68 2478.65,-151.68"/>
<polygon fill="black" stroke="black" points="2475.15,-151.68 2478.65,-161.68 2482.15,-151.68 2475.15,-151.68"/>
</g>
<!-- ProfileModule -->
<g id="node23" class="node">
<title>ProfileModule</title>
<polygon fill="#8dd3c7" stroke="black" points="2724.65,-198 2721.65,-202 2700.65,-202 2697.65,-198 2627.35,-198 2627.35,-162 2724.65,-162 2724.65,-198"/>
<text text-anchor="middle" x="2676" y="-175.8" font-family="Times,serif" font-size="14.00">ProfileModule</text>
</g>
<!-- MainErrorComponent&#45;&gt;ProfileModule -->
<g id="edge32" class="edge">
<title>MainErrorComponent&#45;&gt;ProfileModule</title>
<path fill="none" stroke="black" d="M702.64,-122.24C702.64,-129.43 702.64,-136 702.64,-136 702.64,-136 2664.69,-136 2664.69,-136 2664.69,-136 2664.69,-151.85 2664.69,-151.85"/>
<polygon fill="black" stroke="black" points="2661.19,-151.85 2664.69,-161.85 2668.19,-151.85 2661.19,-151.85"/>
</g>
<!-- SettingsModule -->
<g id="node25" class="node">
<title>SettingsModule</title>
<polygon fill="#8dd3c7" stroke="black" points="2913.16,-198 2910.16,-202 2889.16,-202 2886.16,-198 2808.84,-198 2808.84,-162 2913.16,-162 2913.16,-198"/>
<text text-anchor="middle" x="2861" y="-175.8" font-family="Times,serif" font-size="14.00">SettingsModule</text>
</g>
<!-- MainErrorComponent&#45;&gt;SettingsModule -->
<g id="edge39" class="edge">
<title>MainErrorComponent&#45;&gt;SettingsModule</title>
<path fill="none" stroke="black" d="M706.43,-122.08C706.43,-123.85 706.43,-125 706.43,-125 706.43,-125 2865.12,-125 2865.12,-125 2865.12,-125 2865.12,-151.99 2865.12,-151.99"/>
<polygon fill="black" stroke="black" points="2861.62,-151.99 2865.12,-161.99 2868.62,-151.99 2861.62,-151.99"/>
</g>
<!-- MainRootComponent -->
<g id="node2" class="node">
<title>MainRootComponent</title>
<polygon fill="#ffffb3" stroke="black" points="552.11,-122 413.89,-122 413.89,-86 552.11,-86 552.11,-122"/>
<text text-anchor="middle" x="483" y="-99.8" font-family="Times,serif" font-size="14.00">MainRootComponent</text>
</g>
<!-- MainRootComponent&#45;&gt;AccountModule -->
<g id="edge2" class="edge">
<title>MainRootComponent&#45;&gt;AccountModule</title>
<path fill="none" stroke="black" d="M529.04,-122.31C529.04,-142.15 529.04,-171 529.04,-171 529.04,-171 677.51,-171 677.51,-171"/>
<polygon fill="black" stroke="black" points="677.51,-174.5 687.51,-171 677.51,-167.5 677.51,-174.5"/>
</g>
<!-- MainRootComponent&#45;&gt;MainModule -->
<g id="edge23" class="edge">
<title>MainRootComponent&#45;&gt;MainModule</title>
<path fill="none" stroke="black" d="M436.96,-122.04C436.96,-135.29 436.96,-151 436.96,-151 436.96,-151 2281.92,-151 2281.92,-151 2281.92,-151 2281.92,-152.08 2281.92,-152.08"/>
<polygon fill="black" stroke="black" points="2278.42,-151.8 2281.92,-161.8 2285.42,-151.8 2278.42,-151.8"/>
</g>
<!-- MainRootComponent&#45;&gt;GeneralModule -->
<g id="edge16" class="edge">
<title>MainRootComponent&#45;&gt;GeneralModule</title>
<path fill="none" stroke="black" d="M459.98,-122.06C459.98,-133.44 459.98,-146 459.98,-146 459.98,-146 2462.58,-146 2462.58,-146 2462.58,-146 2462.58,-151.81 2462.58,-151.81"/>
<polygon fill="black" stroke="black" points="2459.08,-151.81 2462.58,-161.81 2466.08,-151.81 2459.08,-151.81"/>
</g>
<!-- MainRootComponent&#45;&gt;ProfileModule -->
<g id="edge33" class="edge">
<title>MainRootComponent&#45;&gt;ProfileModule</title>
<path fill="none" stroke="black" d="M483,-122.19C483,-130.28 483,-138 483,-138 483,-138 2649.65,-138 2649.65,-138 2649.65,-138 2649.65,-151.94 2649.65,-151.94"/>
<polygon fill="black" stroke="black" points="2646.15,-151.94 2649.65,-161.94 2653.15,-151.94 2646.15,-151.94"/>
</g>
<!-- MainRootComponent&#45;&gt;SettingsModule -->
<g id="edge40" class="edge">
<title>MainRootComponent&#45;&gt;SettingsModule</title>
<path fill="none" stroke="black" d="M506.02,-122.12C506.02,-124.97 506.02,-127 506.02,-127 506.02,-127 2849.05,-127 2849.05,-127 2849.05,-127 2849.05,-151.76 2849.05,-151.76"/>
<polygon fill="black" stroke="black" points="2845.55,-151.76 2849.05,-161.76 2852.55,-151.76 2845.55,-151.76"/>
</g>
<!-- MainScrollToTopComponent -->
<g id="node3" class="node">
<title>MainScrollToTopComponent</title>
<polygon fill="#ffffb3" stroke="black" points="1567.43,-122 1384.57,-122 1384.57,-86 1567.43,-86 1567.43,-122"/>
<text text-anchor="middle" x="1476" y="-99.8" font-family="Times,serif" font-size="14.00">MainScrollToTopComponent</text>
</g>
<!-- MainScrollToTopComponent&#45;&gt;AccountModule -->
<g id="edge3" class="edge">
<title>MainScrollToTopComponent&#45;&gt;AccountModule</title>
<path fill="none" stroke="black" d="M1536.81,-122.03C1536.81,-146.98 1536.81,-189 1536.81,-189 1536.81,-189 804.76,-189 804.76,-189"/>
<polygon fill="black" stroke="black" points="804.76,-185.5 794.76,-189 804.76,-192.5 804.76,-185.5"/>
</g>
<!-- MainScrollToTopComponent&#45;&gt;MainModule -->
<g id="edge24" class="edge">
<title>MainScrollToTopComponent&#45;&gt;MainModule</title>
<path fill="none" stroke="black" d="M1415.19,-122.25C1415.19,-136.18 1415.19,-153 1415.19,-153 1415.19,-153 2234.59,-153 2234.59,-153 2234.59,-153 2234.59,-153.88 2234.59,-153.88"/>
<polygon fill="black" stroke="black" points="2231.09,-151.84 2234.59,-161.84 2238.09,-151.84 2231.09,-151.84"/>
</g>
<!-- MainScrollToTopComponent&#45;&gt;GeneralModule -->
<g id="edge17" class="edge">
<title>MainScrollToTopComponent&#45;&gt;GeneralModule</title>
<path fill="none" stroke="black" d="M1445.6,-122.49C1445.6,-134.14 1445.6,-147 1445.6,-147 1445.6,-147 2444.04,-147 2444.04,-147 2444.04,-147 2444.04,-151.96 2444.04,-151.96"/>
<polygon fill="black" stroke="black" points="2440.54,-151.96 2444.04,-161.96 2447.54,-151.96 2440.54,-151.96"/>
</g>
<!-- MainScrollToTopComponent&#45;&gt;ProfileModule -->
<g id="edge34" class="edge">
<title>MainScrollToTopComponent&#45;&gt;ProfileModule</title>
<path fill="none" stroke="black" d="M1476,-122.32C1476,-130.79 1476,-139 1476,-139 1476,-139 2632.14,-139 2632.14,-139 2632.14,-139 2632.14,-151.9 2632.14,-151.9"/>
<polygon fill="black" stroke="black" points="2628.64,-151.9 2632.14,-161.9 2635.64,-151.9 2628.64,-151.9"/>
</g>
<!-- MainScrollToTopComponent&#45;&gt;SettingsModule -->
<g id="edge41" class="edge">
<title>MainScrollToTopComponent&#45;&gt;SettingsModule</title>
<path fill="none" stroke="black" d="M1506.4,-122.17C1506.4,-126.05 1506.4,-129 1506.4,-129 1506.4,-129 2814.85,-129 2814.85,-129 2814.85,-129 2814.85,-151.88 2814.85,-151.88"/>
<polygon fill="black" stroke="black" points="2811.35,-151.88 2814.85,-161.88 2818.35,-151.88 2811.35,-151.88"/>
</g>
<!-- MainToolbarAvatarComponent -->
<g id="node4" class="node">
<title>MainToolbarAvatarComponent</title>
<polygon fill="#ffffb3" stroke="black" points="1366.79,-122 1173.21,-122 1173.21,-86 1366.79,-86 1366.79,-122"/>
<text text-anchor="middle" x="1270" y="-99.8" font-family="Times,serif" font-size="14.00">MainToolbarAvatarComponent</text>
</g>
<!-- MainToolbarAvatarComponent&#45;&gt;AccountModule -->
<g id="edge4" class="edge">
<title>MainToolbarAvatarComponent&#45;&gt;AccountModule</title>
<path fill="none" stroke="black" d="M1334.43,-122.01C1334.43,-144.49 1334.43,-180 1334.43,-180 1334.43,-180 804.71,-180 804.71,-180"/>
<polygon fill="black" stroke="black" points="804.71,-176.5 794.71,-180 804.71,-183.5 804.71,-176.5"/>
</g>
<!-- MainToolbarAvatarComponent&#45;&gt;MainModule -->
<g id="edge25" class="edge">
<title>MainToolbarAvatarComponent&#45;&gt;MainModule</title>
<path fill="none" stroke="black" d="M1205.57,-122.05C1205.57,-136.37 1205.57,-154 1205.57,-154 1205.57,-154 2230.36,-154 2230.36,-154 2230.36,-154 2230.36,-154.79 2230.36,-154.79"/>
<polygon fill="black" stroke="black" points="2226.86,-151.94 2230.36,-161.94 2233.86,-151.94 2226.86,-151.94"/>
</g>
<!-- MainToolbarAvatarComponent&#45;&gt;GeneralModule -->
<g id="edge18" class="edge">
<title>MainToolbarAvatarComponent&#45;&gt;GeneralModule</title>
<path fill="none" stroke="black" d="M1237.79,-122.04C1237.79,-134.56 1237.79,-149 1237.79,-149 1237.79,-149 2441.55,-149 2441.55,-149 2441.55,-149 2441.55,-151.97 2441.55,-151.97"/>
<polygon fill="black" stroke="black" points="2438.05,-151.97 2441.55,-161.97 2445.05,-151.97 2438.05,-151.97"/>
</g>
<!-- MainToolbarAvatarComponent&#45;&gt;ProfileModule -->
<g id="edge35" class="edge">
<title>MainToolbarAvatarComponent&#45;&gt;ProfileModule</title>
<path fill="none" stroke="black" d="M1270,-122.42C1270,-131.28 1270,-140 1270,-140 1270,-140 2629.66,-140 2629.66,-140 2629.66,-140 2629.66,-151.87 2629.66,-151.87"/>
<polygon fill="black" stroke="black" points="2626.16,-151.87 2629.66,-161.87 2633.16,-151.87 2626.16,-151.87"/>
</g>
<!-- MainToolbarAvatarComponent&#45;&gt;SettingsModule -->
<g id="edge42" class="edge">
<title>MainToolbarAvatarComponent&#45;&gt;SettingsModule</title>
<path fill="none" stroke="black" d="M1302.21,-122.16C1302.21,-127.04 1302.21,-131 1302.21,-131 1302.21,-131 2812.79,-131 2812.79,-131 2812.79,-131 2812.79,-151.75 2812.79,-151.75"/>
<polygon fill="black" stroke="black" points="2809.29,-151.75 2812.79,-161.75 2816.29,-151.75 2809.29,-151.75"/>
</g>
<!-- MainToolbarMailComponent -->
<g id="node5" class="node">
<title>MainToolbarMailComponent</title>
<polygon fill="#ffffb3" stroke="black" points="1155.64,-122 974.36,-122 974.36,-86 1155.64,-86 1155.64,-122"/>
<text text-anchor="middle" x="1065" y="-99.8" font-family="Times,serif" font-size="14.00">MainToolbarMailComponent</text>
</g>
<!-- MainToolbarMailComponent&#45;&gt;AccountModule -->
<g id="edge5" class="edge">
<title>MainToolbarMailComponent&#45;&gt;AccountModule</title>
<path fill="none" stroke="black" d="M1125.55,-122.31C1125.55,-142.15 1125.55,-171 1125.55,-171 1125.55,-171 804.87,-171 804.87,-171"/>
<polygon fill="black" stroke="black" points="804.87,-167.5 794.87,-171 804.87,-174.5 804.87,-167.5"/>
</g>
<!-- MainToolbarMailComponent&#45;&gt;MainModule -->
<g id="edge26" class="edge">
<title>MainToolbarMailComponent&#45;&gt;MainModule</title>
<path fill="none" stroke="black" d="M1004.45,-122.19C1004.45,-137.18 1004.45,-156 1004.45,-156 1004.45,-156 2226.14,-156 2226.14,-156 2226.14,-156 2226.14,-156.58 2226.14,-156.58"/>
<polygon fill="black" stroke="black" points="2222.64,-151.81 2226.14,-161.81 2229.64,-151.81 2222.64,-151.81"/>
</g>
<!-- MainToolbarMailComponent&#45;&gt;GeneralModule -->
<g id="edge19" class="edge">
<title>MainToolbarMailComponent&#45;&gt;GeneralModule</title>
<path fill="none" stroke="black" d="M1034.73,-122.11C1034.73,-131.9 1034.73,-142 1034.73,-142 1034.73,-142 2510.79,-142 2510.79,-142 2510.79,-142 2510.79,-151.89 2510.79,-151.89"/>
<polygon fill="black" stroke="black" points="2507.29,-151.89 2510.79,-161.89 2514.29,-151.89 2507.29,-151.89"/>
</g>
<!-- MainToolbarMailComponent&#45;&gt;ProfileModule -->
<g id="edge36" class="edge">
<title>MainToolbarMailComponent&#45;&gt;ProfileModule</title>
<path fill="none" stroke="black" d="M1065,-122.14C1065,-128.46 1065,-134 1065,-134 1065,-134 2694.76,-134 2694.76,-134 2694.76,-134 2694.76,-151.82 2694.76,-151.82"/>
<polygon fill="black" stroke="black" points="2691.26,-151.82 2694.76,-161.82 2698.26,-151.82 2691.26,-151.82"/>
</g>
<!-- MainToolbarMailComponent&#45;&gt;SettingsModule -->
<g id="edge43" class="edge">
<title>MainToolbarMailComponent&#45;&gt;SettingsModule</title>
<path fill="none" stroke="black" d="M1095.27,-122.21C1095.27,-127.55 1095.27,-132 1095.27,-132 1095.27,-132 2810.73,-132 2810.73,-132 2810.73,-132 2810.73,-151.85 2810.73,-151.85"/>
<polygon fill="black" stroke="black" points="2807.23,-151.85 2810.73,-161.85 2814.23,-151.85 2807.23,-151.85"/>
</g>
<!-- MainToolbarNotificationsComponent -->
<g id="node6" class="node">
<title>MainToolbarNotificationsComponent</title>
<polygon fill="#ffffb3" stroke="black" points="956.29,-122 727.71,-122 727.71,-86 956.29,-86 956.29,-122"/>
<text text-anchor="middle" x="842" y="-99.8" font-family="Times,serif" font-size="14.00">MainToolbarNotificationsComponent</text>
</g>
<!-- MainToolbarNotificationsComponent&#45;&gt;AccountModule -->
<g id="edge6" class="edge">
<title>MainToolbarNotificationsComponent&#45;&gt;AccountModule</title>
<path fill="none" stroke="black" d="M761.17,-122.01C761.17,-122.01 761.17,-151.85 761.17,-151.85"/>
<polygon fill="black" stroke="black" points="757.67,-151.85 761.17,-161.85 764.67,-151.85 757.67,-151.85"/>
</g>
<!-- MainToolbarNotificationsComponent&#45;&gt;MainModule -->
<g id="edge27" class="edge">
<title>MainToolbarNotificationsComponent&#45;&gt;MainModule</title>
<path fill="none" stroke="black" d="M826.82,-122.24C826.82,-137.57 826.82,-157 826.82,-157 826.82,-157 2221.91,-157 2221.91,-157 2221.91,-157 2221.91,-157.49 2221.91,-157.49"/>
<polygon fill="black" stroke="black" points="2218.41,-151.88 2221.91,-161.88 2225.41,-151.88 2218.41,-151.88"/>
</g>
<!-- MainToolbarNotificationsComponent&#45;&gt;GeneralModule -->
<g id="edge20" class="edge">
<title>MainToolbarNotificationsComponent&#45;&gt;GeneralModule</title>
<path fill="none" stroke="black" d="M859.15,-122.13C859.15,-132.31 859.15,-143 859.15,-143 859.15,-143 2494.72,-143 2494.72,-143 2494.72,-143 2494.72,-151.93 2494.72,-151.93"/>
<polygon fill="black" stroke="black" points="2491.22,-151.93 2494.72,-161.93 2498.22,-151.93 2491.22,-151.93"/>
</g>
<!-- MainToolbarNotificationsComponent&#45;&gt;ProfileModule -->
<g id="edge37" class="edge">
<title>MainToolbarNotificationsComponent&#45;&gt;ProfileModule</title>
<path fill="none" stroke="black" d="M891.48,-122.03C891.48,-128.85 891.48,-135 891.48,-135 891.48,-135 2679.72,-135 2679.72,-135 2679.72,-135 2679.72,-151.96 2679.72,-151.96"/>
<polygon fill="black" stroke="black" points="2676.22,-151.96 2679.72,-161.96 2683.22,-151.96 2676.22,-151.96"/>
</g>
<!-- MainToolbarNotificationsComponent&#45;&gt;SettingsModule -->
<g id="edge44" class="edge">
<title>MainToolbarNotificationsComponent&#45;&gt;SettingsModule</title>
<path fill="none" stroke="black" d="M923.82,-122.15C923.82,-123.3 923.82,-124 923.82,-124 923.82,-124 2881.19,-124 2881.19,-124 2881.19,-124 2881.19,-151.97 2881.19,-151.97"/>
<polygon fill="black" stroke="black" points="2877.69,-151.97 2881.19,-161.97 2884.69,-151.97 2877.69,-151.97"/>
</g>
<!-- AccountRoutingModule -->
<g id="node8" class="node">
<title>AccountRoutingModule</title>
<polygon fill="#8dd3c7" stroke="black" points="176.09,-122 173.09,-126 152.09,-126 149.09,-122 23.91,-122 23.91,-86 176.09,-86 176.09,-122"/>
<text text-anchor="middle" x="100" y="-99.8" font-family="Times,serif" font-size="14.00">AccountRoutingModule</text>
</g>
<!-- AccountRoutingModule&#45;&gt;AccountModule -->
<g id="edge7" class="edge">
<title>AccountRoutingModule&#45;&gt;AccountModule</title>
<path fill="none" stroke="black" d="M100,-122.03C100,-146.98 100,-189 100,-189 100,-189 677.45,-189 677.45,-189"/>
<polygon fill="black" stroke="black" points="677.45,-192.5 687.45,-189 677.45,-185.5 677.45,-192.5"/>
</g>
<!-- MpgpFormControlErrorModule -->
<g id="node9" class="node">
<title>MpgpFormControlErrorModule</title>
<polygon fill="#8dd3c7" stroke="black" points="389.64,-122 386.64,-126 365.64,-126 362.64,-122 194.36,-122 194.36,-86 389.64,-86 389.64,-122"/>
<text text-anchor="middle" x="292" y="-99.8" font-family="Times,serif" font-size="14.00">MpgpFormControlErrorModule</text>
</g>
<!-- MpgpFormControlErrorModule&#45;&gt;AccountModule -->
<g id="edge8" class="edge">
<title>MpgpFormControlErrorModule&#45;&gt;AccountModule</title>
<path fill="none" stroke="black" d="M350.69,-122.01C350.69,-144.49 350.69,-180 350.69,-180 350.69,-180 677.14,-180 677.14,-180"/>
<polygon fill="black" stroke="black" points="677.14,-183.5 687.14,-180 677.14,-176.5 677.14,-183.5"/>
</g>
<!-- MpgpFormControlErrorDirective  -->
<g id="node22" class="node">
<title>MpgpFormControlErrorDirective </title>
<polygon fill="#fb8072" stroke="black" points="1814.67,-198 1607.33,-198 1607.33,-162 1814.67,-162 1814.67,-198"/>
<text text-anchor="middle" x="1711" y="-175.8" font-family="Times,serif" font-size="14.00">MpgpFormControlErrorDirective </text>
</g>
<!-- MpgpFormControlErrorModule&#45;&gt;MpgpFormControlErrorDirective  -->
<g id="edge31" class="edge">
<title>MpgpFormControlErrorModule&#45;&gt;MpgpFormControlErrorDirective </title>
<path fill="none" stroke="black" stroke-dasharray="5,2" d="M272.44,-122.04C272.44,-138.73 272.44,-161 272.44,-161 272.44,-161 1711,-161 1711,-161 1711,-161 1711,-161.08 1711,-161.08"/>
<polygon fill="black" stroke="black" points="1707.5,-151.82 1711,-161.82 1714.5,-151.82 1707.5,-151.82"/>
</g>
<!-- MpgpFormControlErrorModule&#45;&gt;SettingsModule -->
<g id="edge45" class="edge">
<title>MpgpFormControlErrorModule&#45;&gt;SettingsModule</title>
<path fill="none" stroke="black" d="M311.56,-122.19C311.56,-125.54 311.56,-128 311.56,-128 311.56,-128 2832.98,-128 2832.98,-128 2832.98,-128 2832.98,-151.81 2832.98,-151.81"/>
<polygon fill="black" stroke="black" points="2829.48,-151.81 2832.98,-161.81 2836.48,-151.81 2829.48,-151.81"/>
</g>
<!-- AppComponent -->
<g id="node10" class="node">
<title>AppComponent</title>
<polygon fill="#ffffb3" stroke="black" points="2188.94,-198 2083.06,-198 2083.06,-162 2188.94,-162 2188.94,-198"/>
<text text-anchor="middle" x="2136" y="-175.8" font-family="Times,serif" font-size="14.00">AppComponent</text>
</g>
<!-- AppModule -->
<g id="node11" class="node">
<title>AppModule</title>
<polygon fill="#8dd3c7" stroke="black" points="2299.66,-274 2296.66,-278 2275.66,-278 2272.66,-274 2216.34,-274 2216.34,-238 2299.66,-238 2299.66,-274"/>
<text text-anchor="middle" x="2258" y="-251.8" font-family="Times,serif" font-size="14.00">AppModule</text>
</g>
<!-- AppComponent&#45;&gt;AppModule -->
<g id="edge9" class="edge">
<title>AppComponent&#45;&gt;AppModule</title>
<path fill="none" stroke="black" d="M2136,-198.01C2136,-220.49 2136,-256 2136,-256 2136,-256 2206.01,-256 2206.01,-256"/>
<polygon fill="black" stroke="black" points="2206.01,-259.5 2216.01,-256 2206.01,-252.5 2206.01,-259.5"/>
</g>
<!-- AppComponent  -->
<g id="node14" class="node">
<title>AppComponent </title>
<polygon fill="#80b1d3" stroke="black" points="2312.44,-342 2203.56,-342 2203.56,-306 2312.44,-306 2312.44,-342"/>
<text text-anchor="middle" x="2258" y="-319.8" font-family="Times,serif" font-size="14.00">AppComponent </text>
</g>
<!-- AppModule&#45;&gt;AppComponent  -->
<g id="edge12" class="edge">
<title>AppModule&#45;&gt;AppComponent </title>
<path fill="none" stroke="black" stroke-dasharray="1,5" d="M2258,-274.22C2258,-274.22 2258,-295.73 2258,-295.73"/>
<polygon fill="black" stroke="black" points="2254.5,-295.73 2258,-305.73 2261.5,-295.73 2254.5,-295.73"/>
</g>
<!-- CoreModule -->
<g id="node12" class="node">
<title>CoreModule</title>
<polygon fill="#8dd3c7" stroke="black" points="2407.26,-198 2404.26,-202 2383.26,-202 2380.26,-198 2320.74,-198 2320.74,-162 2407.26,-162 2407.26,-198"/>
<text text-anchor="middle" x="2364" y="-175.8" font-family="Times,serif" font-size="14.00">CoreModule</text>
</g>
<!-- CoreModule&#45;&gt;AppModule -->
<g id="edge10" class="edge">
<title>CoreModule&#45;&gt;AppModule</title>
<path fill="none" stroke="black" d="M2364,-198.2C2364,-222.36 2364,-262 2364,-262 2364,-262 2309.89,-262 2309.89,-262"/>
<polygon fill="black" stroke="black" points="2309.89,-258.5 2299.89,-262 2309.89,-265.5 2309.89,-258.5"/>
</g>
<!-- MainModule&#45;&gt;AppModule -->
<g id="edge11" class="edge">
<title>MainModule&#45;&gt;AppModule</title>
<path fill="none" stroke="black" d="M2244.06,-198.01C2244.06,-198.01 2244.06,-227.85 2244.06,-227.85"/>
<polygon fill="black" stroke="black" points="2240.56,-227.85 2244.06,-237.85 2247.56,-227.85 2240.56,-227.85"/>
</g>
<!-- MainRootComponent  -->
<g id="node20" class="node">
<title>MainRootComponent </title>
<polygon fill="#fb8072" stroke="black" points="2588.61,-274 2447.39,-274 2447.39,-238 2588.61,-238 2588.61,-274"/>
<text text-anchor="middle" x="2518" y="-251.8" font-family="Times,serif" font-size="14.00">MainRootComponent </text>
</g>
<!-- MainModule&#45;&gt;MainRootComponent  -->
<g id="edge29" class="edge">
<title>MainModule&#45;&gt;MainRootComponent </title>
<path fill="none" stroke="black" stroke-dasharray="5,2" d="M2302.58,-180C2305.62,-180 2307.51,-180 2307.51,-180 2307.51,-180 2307.51,-250 2307.51,-250 2307.51,-250 2437.32,-250 2437.32,-250"/>
<polygon fill="black" stroke="black" points="2437.32,-253.5 2447.32,-250 2437.32,-246.5 2437.32,-253.5"/>
</g>
<!-- AccountService -->
<g id="node15" class="node">
<title>AccountService</title>
<ellipse fill="#fdb462" stroke="black" cx="2334" cy="-104" rx="72.91" ry="18"/>
<text text-anchor="middle" x="2334" y="-99.8" font-family="Times,serif" font-size="14.00">AccountService</text>
</g>
<!-- AccountService&#45;&gt;CoreModule -->
<g id="edge13" class="edge">
<title>AccountService&#45;&gt;CoreModule</title>
<path fill="none" stroke="black" d="M2378.01,-118.65C2378.01,-118.65 2378.01,-151.9 2378.01,-151.9"/>
<polygon fill="black" stroke="black" points="2374.51,-151.9 2378.01,-161.9 2381.51,-151.9 2374.51,-151.9"/>
</g>
<!-- ErrorsLogger -->
<g id="node16" class="node">
<title>ErrorsLogger</title>
<ellipse fill="#fdb462" stroke="black" cx="2180" cy="-104" rx="63.1" ry="18"/>
<text text-anchor="middle" x="2180" y="-99.8" font-family="Times,serif" font-size="14.00">ErrorsLogger</text>
</g>
<!-- ErrorsLogger&#45;&gt;CoreModule -->
<g id="edge14" class="edge">
<title>ErrorsLogger&#45;&gt;CoreModule</title>
<path fill="none" stroke="black" d="M2238.82,-110.79C2238.82,-123.58 2238.82,-150 2238.82,-150 2238.82,-150 2349.31,-150 2349.31,-150 2349.31,-150 2349.31,-151.86 2349.31,-151.86"/>
<polygon fill="black" stroke="black" points="2345.81,-151.86 2349.31,-161.86 2352.81,-151.86 2345.81,-151.86"/>
</g>
<!-- GeneralRoutingModule -->
<g id="node18" class="node">
<title>GeneralRoutingModule</title>
<polygon fill="#8dd3c7" stroke="black" points="2595.47,-122 2592.47,-126 2571.47,-126 2568.47,-122 2446.53,-122 2446.53,-86 2595.47,-86 2595.47,-122"/>
<text text-anchor="middle" x="2521" y="-99.8" font-family="Times,serif" font-size="14.00">GeneralRoutingModule</text>
</g>
<!-- GeneralRoutingModule&#45;&gt;GeneralModule -->
<g id="edge21" class="edge">
<title>GeneralRoutingModule&#45;&gt;GeneralModule</title>
<path fill="none" stroke="black" d="M2526.86,-122.01C2526.86,-122.01 2526.86,-151.85 2526.86,-151.85"/>
<polygon fill="black" stroke="black" points="2523.36,-151.85 2526.86,-161.85 2530.36,-151.85 2523.36,-151.85"/>
</g>
<!-- MainRoutingModule -->
<g id="node19" class="node">
<title>MainRoutingModule</title>
<polygon fill="#8dd3c7" stroke="black" points="2747.22,-274 2744.22,-278 2723.22,-278 2720.22,-274 2612.78,-274 2612.78,-238 2747.22,-238 2747.22,-274"/>
<text text-anchor="middle" x="2680" y="-251.8" font-family="Times,serif" font-size="14.00">MainRoutingModule</text>
</g>
<!-- MainRoutingModule&#45;&gt;MainModule -->
<g id="edge28" class="edge">
<title>MainRoutingModule&#45;&gt;MainModule</title>
<path fill="none" stroke="black" d="M2620.03,-237.89C2620.03,-228.1 2620.03,-218 2620.03,-218 2620.03,-218 2271.94,-218 2271.94,-218 2271.94,-218 2271.94,-208.11 2271.94,-208.11"/>
<polygon fill="black" stroke="black" points="2275.44,-208.11 2271.94,-198.11 2268.44,-208.11 2275.44,-208.11"/>
</g>
<!-- MpgpFormControlErrorDirective -->
<g id="node21" class="node">
<title>MpgpFormControlErrorDirective</title>
<polygon fill="#ffffb3" stroke="black" points="2043.17,-198 1838.83,-198 1838.83,-162 2043.17,-162 2043.17,-198"/>
<text text-anchor="middle" x="1941" y="-175.8" font-family="Times,serif" font-size="14.00">MpgpFormControlErrorDirective</text>
</g>
<!-- MpgpFormControlErrorDirective&#45;&gt;MpgpFormControlErrorModule -->
<g id="edge30" class="edge">
<title>MpgpFormControlErrorDirective&#45;&gt;MpgpFormControlErrorModule</title>
<path fill="none" stroke="black" d="M1941,-161.85C1941,-160.7 1941,-160 1941,-160 1941,-160 233.31,-160 233.31,-160 233.31,-160 233.31,-132.03 233.31,-132.03"/>
<polygon fill="black" stroke="black" points="236.81,-132.03 233.31,-122.03 229.81,-132.03 236.81,-132.03"/>
</g>
<!-- ProfileRoutingModule -->
<g id="node24" class="node">
<title>ProfileRoutingModule</title>
<polygon fill="#8dd3c7" stroke="black" points="2777.27,-122 2774.27,-126 2753.27,-126 2750.27,-122 2634.73,-122 2634.73,-86 2777.27,-86 2777.27,-122"/>
<text text-anchor="middle" x="2706" y="-99.8" font-family="Times,serif" font-size="14.00">ProfileRoutingModule</text>
</g>
<!-- ProfileRoutingModule&#45;&gt;ProfileModule -->
<g id="edge38" class="edge">
<title>ProfileRoutingModule&#45;&gt;ProfileModule</title>
<path fill="none" stroke="black" d="M2709.79,-122.01C2709.79,-122.01 2709.79,-151.85 2709.79,-151.85"/>
<polygon fill="black" stroke="black" points="2706.29,-151.85 2709.79,-161.85 2713.29,-151.85 2706.29,-151.85"/>
</g>
<!-- SettingsRoutingModule -->
<g id="node26" class="node">
<title>SettingsRoutingModule</title>
<polygon fill="#8dd3c7" stroke="black" points="3132.78,-122 3129.78,-126 3108.78,-126 3105.78,-122 2983.22,-122 2983.22,-86 3132.78,-86 3132.78,-122"/>
<text text-anchor="middle" x="3058" y="-99.8" font-family="Times,serif" font-size="14.00">SettingsRoutingModule</text>
</g>
<!-- SettingsRoutingModule&#45;&gt;SettingsModule -->
<g id="edge46" class="edge">
<title>SettingsRoutingModule&#45;&gt;SettingsModule</title>
<path fill="none" stroke="black" d="M3058,-122.01C3058,-144.49 3058,-180 3058,-180 3058,-180 2923.28,-180 2923.28,-180"/>
<polygon fill="black" stroke="black" points="2923.28,-176.5 2913.28,-180 2923.28,-183.5 2923.28,-176.5"/>
</g>
<!-- ManageService -->
<g id="node27" class="node">
<title>ManageService</title>
<ellipse fill="#fdb462" stroke="black" cx="2888" cy="-104" rx="71.19" ry="18"/>
<text text-anchor="middle" x="2888" y="-99.8" font-family="Times,serif" font-size="14.00">ManageService</text>
</g>
<!-- ManageService&#45;&gt;SettingsModule -->
<g id="edge47" class="edge">
<title>ManageService&#45;&gt;SettingsModule</title>
<path fill="none" stroke="black" d="M2897.26,-122.01C2897.26,-122.01 2897.26,-151.85 2897.26,-151.85"/>
<polygon fill="black" stroke="black" points="2893.76,-151.85 2897.26,-161.85 2900.76,-151.85 2893.76,-151.85"/>
</g>
</g>
</svg>
