<?xml version="1.0" encoding="UTF-8" standalone="no"?>
<!DOCTYPE svg PUBLIC "-//W3C//DTD SVG 1.1//EN"
 "http://www.w3.org/Graphics/SVG/1.1/DTD/svg11.dtd">
<!-- Generated by graphviz version 2.44.1 (20200629.0846)
 -->
<!-- Title: dependencies Pages: 1 -->
<svg width="1367pt" height="284pt"
 viewBox="0.00 0.00 1367.00 284.00" xmlns="http://www.w3.org/2000/svg" xmlns:xlink="http://www.w3.org/1999/xlink">
<g id="graph0" class="graph" transform="scale(1 1) rotate(0) translate(4 280)">
<title>dependencies</title>
<polygon fill="white" stroke="transparent" points="-4,4 -4,-280 1363,-280 1363,4 -4,4"/>
<text text-anchor="start" x="658.51" y="-42.4" font-family="sans-serif" font-weight="bold" font-size="14.00">Legend</text>
<polygon fill="#ffffb3" stroke="transparent" points="445.5,-10 445.5,-30 465.5,-30 465.5,-10 445.5,-10"/>
<text text-anchor="start" x="469.13" y="-15.4" font-family="sans-serif" font-size="14.00"> &#160;Declarations</text>
<polygon fill="#8dd3c7" stroke="transparent" points="558.5,-10 558.5,-30 578.5,-30 578.5,-10 558.5,-10"/>
<text text-anchor="start" x="582.23" y="-15.4" font-family="sans-serif" font-size="14.00"> &#160;Module</text>
<polygon fill="#80b1d3" stroke="transparent" points="644.5,-10 644.5,-30 664.5,-30 664.5,-10 644.5,-10"/>
<text text-anchor="start" x="668.28" y="-15.4" font-family="sans-serif" font-size="14.00"> &#160;Bootstrap</text>
<polygon fill="#fdb462" stroke="transparent" points="741.5,-10 741.5,-30 761.5,-30 761.5,-10 741.5,-10"/>
<text text-anchor="start" x="765.17" y="-15.4" font-family="sans-serif" font-size="14.00"> &#160;Providers</text>
<polygon fill="#fb8072" stroke="transparent" points="837.5,-10 837.5,-30 857.5,-30 857.5,-10 837.5,-10"/>
<text text-anchor="start" x="861.23" y="-15.4" font-family="sans-serif" font-size="14.00"> &#160;Exports</text>
<g id="clust1" class="cluster">
<title>cluster_MainModule</title>
<polygon fill="none" stroke="black" stroke-dasharray="1,5" points="8,-70 8,-268 1351,-268 1351,-70 8,-70"/>
</g>
<g id="clust9" class="cluster">
<title>cluster_MainModule_imports</title>
<polygon fill="none" stroke="black" points="1193,-78 1193,-130 1343,-130 1343,-78 1193,-78"/>
</g>
<g id="clust2" class="cluster">
<title>cluster_MainModule_declarations</title>
<polygon fill="none" stroke="black" points="16,-78 16,-130 1185,-130 1185,-78 16,-78"/>
</g>
<g id="clust10" class="cluster">
<title>cluster_MainModule_exports</title>
<polygon fill="none" stroke="black" points="693,-208 693,-260 851,-260 851,-208 693,-208"/>
</g>
<!-- MainErrorComponent -->
<g id="node1" class="node">
<title>MainErrorComponent</title>
<polygon fill="#ffffb3" stroke="black" points="1177.42,-122 1036.58,-122 1036.58,-86 1177.42,-86 1177.42,-122"/>
<text text-anchor="middle" x="1107" y="-99.8" font-family="Times,serif" font-size="14.00">MainErrorComponent</text>
</g>
<!-- MainModule -->
<g id="node7" class="node">
<title>MainModule</title>
<polygon fill="#8dd3c7" stroke="black" points="816.6,-187 813.6,-191 792.6,-191 789.6,-187 727.4,-187 727.4,-151 816.6,-151 816.6,-187"/>
<text text-anchor="middle" x="772" y="-164.8" font-family="Times,serif" font-size="14.00">MainModule</text>
</g>
<!-- MainErrorComponent&#45;&gt;MainModule -->
<g id="edge1" class="edge">
<title>MainErrorComponent&#45;&gt;MainModule</title>
<path fill="none" stroke="black" d="M1107,-122.11C1107,-141.34 1107,-169 1107,-169 1107,-169 826.83,-169 826.83,-169"/>
<polygon fill="black" stroke="black" points="826.83,-165.5 816.83,-169 826.83,-172.5 826.83,-165.5"/>
</g>
<!-- MainRootComponent -->
<g id="node2" class="node">
<title>MainRootComponent</title>
<polygon fill="#ffffb3" stroke="black" points="1019.11,-122 880.89,-122 880.89,-86 1019.11,-86 1019.11,-122"/>
<text text-anchor="middle" x="950" y="-99.8" font-family="Times,serif" font-size="14.00">MainRootComponent</text>
</g>
<!-- MainRootComponent&#45;&gt;MainModule -->
<g id="edge2" class="edge">
<title>MainRootComponent&#45;&gt;MainModule</title>
<path fill="none" stroke="black" d="M950,-122.03C950,-138.4 950,-160 950,-160 950,-160 826.92,-160 826.92,-160"/>
<polygon fill="black" stroke="black" points="826.92,-156.5 816.92,-160 826.92,-163.5 826.92,-156.5"/>
</g>
<!-- MainScrollToTopComponent -->
<g id="node3" class="node">
<title>MainScrollToTopComponent</title>
<polygon fill="#ffffb3" stroke="black" points="863.43,-122 680.57,-122 680.57,-86 863.43,-86 863.43,-122"/>
<text text-anchor="middle" x="772" y="-99.8" font-family="Times,serif" font-size="14.00">MainScrollToTopComponent</text>
</g>
<!-- MainScrollToTopComponent&#45;&gt;MainModule -->
<g id="edge3" class="edge">
<title>MainScrollToTopComponent&#45;&gt;MainModule</title>
<path fill="none" stroke="black" d="M772,-122.11C772,-122.11 772,-140.99 772,-140.99"/>
<polygon fill="black" stroke="black" points="768.5,-140.99 772,-150.99 775.5,-140.99 768.5,-140.99"/>
</g>
<!-- MainToolbarAvatarComponent -->
<g id="node4" class="node">
<title>MainToolbarAvatarComponent</title>
<polygon fill="#ffffb3" stroke="black" points="662.79,-122 469.21,-122 469.21,-86 662.79,-86 662.79,-122"/>
<text text-anchor="middle" x="566" y="-99.8" font-family="Times,serif" font-size="14.00">MainToolbarAvatarComponent</text>
</g>
<!-- MainToolbarAvatarComponent&#45;&gt;MainModule -->
<g id="edge4" class="edge">
<title>MainToolbarAvatarComponent&#45;&gt;MainModule</title>
<path fill="none" stroke="black" d="M566,-122.03C566,-138.4 566,-160 566,-160 566,-160 717.3,-160 717.3,-160"/>
<polygon fill="black" stroke="black" points="717.3,-163.5 727.3,-160 717.3,-156.5 717.3,-163.5"/>
</g>
<!-- MainToolbarMailComponent -->
<g id="node5" class="node">
<title>MainToolbarMailComponent</title>
<polygon fill="#ffffb3" stroke="black" points="451.64,-122 270.36,-122 270.36,-86 451.64,-86 451.64,-122"/>
<text text-anchor="middle" x="361" y="-99.8" font-family="Times,serif" font-size="14.00">MainToolbarMailComponent</text>
</g>
<!-- MainToolbarMailComponent&#45;&gt;MainModule -->
<g id="edge5" class="edge">
<title>MainToolbarMailComponent&#45;&gt;MainModule</title>
<path fill="none" stroke="black" d="M361,-122.11C361,-141.34 361,-169 361,-169 361,-169 717.23,-169 717.23,-169"/>
<polygon fill="black" stroke="black" points="717.23,-172.5 727.23,-169 717.23,-165.5 717.23,-172.5"/>
</g>
<!-- MainToolbarNotificationsComponent -->
<g id="node6" class="node">
<title>MainToolbarNotificationsComponent</title>
<polygon fill="#ffffb3" stroke="black" points="252.29,-122 23.71,-122 23.71,-86 252.29,-86 252.29,-122"/>
<text text-anchor="middle" x="138" y="-99.8" font-family="Times,serif" font-size="14.00">MainToolbarNotificationsComponent</text>
</g>
<!-- MainToolbarNotificationsComponent&#45;&gt;MainModule -->
<g id="edge6" class="edge">
<title>MainToolbarNotificationsComponent&#45;&gt;MainModule</title>
<path fill="none" stroke="black" d="M138,-122.29C138,-144.21 138,-178 138,-178 138,-178 717.42,-178 717.42,-178"/>
<polygon fill="black" stroke="black" points="717.42,-181.5 727.42,-178 717.42,-174.5 717.42,-181.5"/>
</g>
<!-- MainRootComponent  -->
<g id="node9" class="node">
<title>MainRootComponent </title>
<polygon fill="#fb8072" stroke="black" points="842.61,-252 701.39,-252 701.39,-216 842.61,-216 842.61,-252"/>
<text text-anchor="middle" x="772" y="-229.8" font-family="Times,serif" font-size="14.00">MainRootComponent </text>
</g>
<!-- MainModule&#45;&gt;MainRootComponent  -->
<g id="edge8" class="edge">
<title>MainModule&#45;&gt;MainRootComponent </title>
<path fill="none" stroke="black" stroke-dasharray="5,2" d="M772,-187.11C772,-187.11 772,-205.99 772,-205.99"/>
<polygon fill="black" stroke="black" points="768.5,-205.99 772,-215.99 775.5,-205.99 768.5,-205.99"/>
</g>
<!-- MainRoutingModule -->
<g id="node8" class="node">
<title>MainRoutingModule</title>
<polygon fill="#8dd3c7" stroke="black" points="1335.22,-122 1332.22,-126 1311.22,-126 1308.22,-122 1200.78,-122 1200.78,-86 1335.22,-86 1335.22,-122"/>
<text text-anchor="middle" x="1268" y="-99.8" font-family="Times,serif" font-size="14.00">MainRoutingModule</text>
</g>
<!-- MainRoutingModule&#45;&gt;MainModule -->
<g id="edge7" class="edge">
<title>MainRoutingModule&#45;&gt;MainModule</title>
<path fill="none" stroke="black" d="M1268,-122.29C1268,-144.21 1268,-178 1268,-178 1268,-178 826.89,-178 826.89,-178"/>
<polygon fill="black" stroke="black" points="826.89,-174.5 816.89,-178 826.89,-181.5 826.89,-174.5"/>
</g>
</g>
</svg>
