<?xml version="1.0" encoding="UTF-8" standalone="no"?>
<!DOCTYPE svg PUBLIC "-//W3C//DTD SVG 1.1//EN"
 "http://www.w3.org/Graphics/SVG/1.1/DTD/svg11.dtd">
<!-- Generated by graphviz version 2.44.1 (20200629.0846)
 -->
<!-- Title: dependencies Pages: 1 -->
<svg width="1599pt" height="211pt"
 viewBox="0.00 0.00 1599.00 211.00" xmlns="http://www.w3.org/2000/svg" xmlns:xlink="http://www.w3.org/1999/xlink">
<g id="graph0" class="graph" transform="scale(1 1) rotate(0) translate(4 207)">
<title>dependencies</title>
<polygon fill="white" stroke="transparent" points="-4,4 -4,-207 1595,-207 1595,4 -4,4"/>
<text text-anchor="start" x="774.51" y="-42.4" font-family="sans-serif" font-weight="bold" font-size="14.00">Legend</text>
<polygon fill="#ffffb3" stroke="transparent" points="561.5,-10 561.5,-30 581.5,-30 581.5,-10 561.5,-10"/>
<text text-anchor="start" x="585.13" y="-15.4" font-family="sans-serif" font-size="14.00"> &#160;Declarations</text>
<polygon fill="#8dd3c7" stroke="transparent" points="674.5,-10 674.5,-30 694.5,-30 694.5,-10 674.5,-10"/>
<text text-anchor="start" x="698.23" y="-15.4" font-family="sans-serif" font-size="14.00"> &#160;Module</text>
<polygon fill="#80b1d3" stroke="transparent" points="760.5,-10 760.5,-30 780.5,-30 780.5,-10 760.5,-10"/>
<text text-anchor="start" x="784.28" y="-15.4" font-family="sans-serif" font-size="14.00"> &#160;Bootstrap</text>
<polygon fill="#fdb462" stroke="transparent" points="857.5,-10 857.5,-30 877.5,-30 877.5,-10 857.5,-10"/>
<text text-anchor="start" x="881.17" y="-15.4" font-family="sans-serif" font-size="14.00"> &#160;Providers</text>
<polygon fill="#fb8072" stroke="transparent" points="953.5,-10 953.5,-30 973.5,-30 973.5,-10 953.5,-10"/>
<text text-anchor="start" x="977.23" y="-15.4" font-family="sans-serif" font-size="14.00"> &#160;Exports</text>
<g id="clust1" class="cluster">
<title>cluster_AccountModule</title>
<polygon fill="none" stroke="black" stroke-dasharray="1,5" points="8,-70 8,-195 1583,-195 1583,-70 8,-70"/>
</g>
<g id="clust2" class="cluster">
<title>cluster_AccountModule_declarations</title>
<polygon fill="none" stroke="black" points="406,-78 406,-130 1575,-130 1575,-78 406,-78"/>
</g>
<g id="clust9" class="cluster">
<title>cluster_AccountModule_imports</title>
<polygon fill="none" stroke="black" points="16,-78 16,-130 398,-130 398,-78 16,-78"/>
</g>
<!-- MainErrorComponent -->
<g id="node1" class="node">
<title>MainErrorComponent</title>
<polygon fill="#ffffb3" stroke="black" points="1567.42,-122 1426.58,-122 1426.58,-86 1567.42,-86 1567.42,-122"/>
<text text-anchor="middle" x="1497" y="-99.8" font-family="Times,serif" font-size="14.00">MainErrorComponent</text>
</g>
<!-- AccountModule -->
<g id="node7" class="node">
<title>AccountModule</title>
<polygon fill="#8dd3c7" stroke="black" points="906.48,-187 903.48,-191 882.48,-191 879.48,-187 799.52,-187 799.52,-151 906.48,-151 906.48,-187"/>
<text text-anchor="middle" x="853" y="-164.8" font-family="Times,serif" font-size="14.00">AccountModule</text>
</g>
<!-- MainErrorComponent&#45;&gt;AccountModule -->
<g id="edge1" class="edge">
<title>MainErrorComponent&#45;&gt;AccountModule</title>
<path fill="none" stroke="black" d="M1497,-122.29C1497,-144.21 1497,-178 1497,-178 1497,-178 916.52,-178 916.52,-178"/>
<polygon fill="black" stroke="black" points="916.52,-174.5 906.52,-178 916.52,-181.5 916.52,-174.5"/>
</g>
<!-- MainRootComponent -->
<g id="node2" class="node">
<title>MainRootComponent</title>
<polygon fill="#ffffb3" stroke="black" points="1409.11,-122 1270.89,-122 1270.89,-86 1409.11,-86 1409.11,-122"/>
<text text-anchor="middle" x="1340" y="-99.8" font-family="Times,serif" font-size="14.00">MainRootComponent</text>
</g>
<!-- MainRootComponent&#45;&gt;AccountModule -->
<g id="edge2" class="edge">
<title>MainRootComponent&#45;&gt;AccountModule</title>
<path fill="none" stroke="black" d="M1340,-122.11C1340,-141.34 1340,-169 1340,-169 1340,-169 916.51,-169 916.51,-169"/>
<polygon fill="black" stroke="black" points="916.51,-165.5 906.51,-169 916.51,-172.5 916.51,-165.5"/>
</g>
<!-- MainScrollToTopComponent -->
<g id="node3" class="node">
<title>MainScrollToTopComponent</title>
<polygon fill="#ffffb3" stroke="black" points="1253.43,-122 1070.57,-122 1070.57,-86 1253.43,-86 1253.43,-122"/>
<text text-anchor="middle" x="1162" y="-99.8" font-family="Times,serif" font-size="14.00">MainScrollToTopComponent</text>
</g>
<!-- MainScrollToTopComponent&#45;&gt;AccountModule -->
<g id="edge3" class="edge">
<title>MainScrollToTopComponent&#45;&gt;AccountModule</title>
<path fill="none" stroke="black" d="M1162,-122.03C1162,-138.4 1162,-160 1162,-160 1162,-160 916.82,-160 916.82,-160"/>
<polygon fill="black" stroke="black" points="916.82,-156.5 906.82,-160 916.82,-163.5 916.82,-156.5"/>
</g>
<!-- MainToolbarAvatarComponent -->
<g id="node4" class="node">
<title>MainToolbarAvatarComponent</title>
<polygon fill="#ffffb3" stroke="black" points="1052.79,-122 859.21,-122 859.21,-86 1052.79,-86 1052.79,-122"/>
<text text-anchor="middle" x="956" y="-99.8" font-family="Times,serif" font-size="14.00">MainToolbarAvatarComponent</text>
</g>
<!-- MainToolbarAvatarComponent&#45;&gt;AccountModule -->
<g id="edge4" class="edge">
<title>MainToolbarAvatarComponent&#45;&gt;AccountModule</title>
<path fill="none" stroke="black" d="M882.92,-122.11C882.92,-122.11 882.92,-140.99 882.92,-140.99"/>
<polygon fill="black" stroke="black" points="879.42,-140.99 882.92,-150.99 886.42,-140.99 879.42,-140.99"/>
</g>
<!-- MainToolbarMailComponent -->
<g id="node5" class="node">
<title>MainToolbarMailComponent</title>
<polygon fill="#ffffb3" stroke="black" points="841.64,-122 660.36,-122 660.36,-86 841.64,-86 841.64,-122"/>
<text text-anchor="middle" x="751" y="-99.8" font-family="Times,serif" font-size="14.00">MainToolbarMailComponent</text>
</g>
<!-- MainToolbarMailComponent&#45;&gt;AccountModule -->
<g id="edge5" class="edge">
<title>MainToolbarMailComponent&#45;&gt;AccountModule</title>
<path fill="none" stroke="black" d="M820.67,-122.11C820.67,-122.11 820.67,-140.99 820.67,-140.99"/>
<polygon fill="black" stroke="black" points="817.17,-140.99 820.67,-150.99 824.17,-140.99 817.17,-140.99"/>
</g>
<!-- MainToolbarNotificationsComponent -->
<g id="node6" class="node">
<title>MainToolbarNotificationsComponent</title>
<polygon fill="#ffffb3" stroke="black" points="642.29,-122 413.71,-122 413.71,-86 642.29,-86 642.29,-122"/>
<text text-anchor="middle" x="528" y="-99.8" font-family="Times,serif" font-size="14.00">MainToolbarNotificationsComponent</text>
</g>
<!-- MainToolbarNotificationsComponent&#45;&gt;AccountModule -->
<g id="edge6" class="edge">
<title>MainToolbarNotificationsComponent&#45;&gt;AccountModule</title>
<path fill="none" stroke="black" d="M528,-122.03C528,-138.4 528,-160 528,-160 528,-160 789.33,-160 789.33,-160"/>
<polygon fill="black" stroke="black" points="789.33,-163.5 799.33,-160 789.33,-156.5 789.33,-163.5"/>
</g>
<!-- AccountRoutingModule -->
<g id="node8" class="node">
<title>AccountRoutingModule</title>
<polygon fill="#8dd3c7" stroke="black" points="390.09,-122 387.09,-126 366.09,-126 363.09,-122 237.91,-122 237.91,-86 390.09,-86 390.09,-122"/>
<text text-anchor="middle" x="314" y="-99.8" font-family="Times,serif" font-size="14.00">AccountRoutingModule</text>
</g>
<!-- AccountRoutingModule&#45;&gt;AccountModule -->
<g id="edge7" class="edge">
<title>AccountRoutingModule&#45;&gt;AccountModule</title>
<path fill="none" stroke="black" d="M314,-122.11C314,-141.34 314,-169 314,-169 314,-169 789.35,-169 789.35,-169"/>
<polygon fill="black" stroke="black" points="789.35,-172.5 799.35,-169 789.35,-165.5 789.35,-172.5"/>
</g>
<!-- MpgpFormControlErrorModule -->
<g id="node9" class="node">
<title>MpgpFormControlErrorModule</title>
<polygon fill="#8dd3c7" stroke="black" points="219.64,-122 216.64,-126 195.64,-126 192.64,-122 24.36,-122 24.36,-86 219.64,-86 219.64,-122"/>
<text text-anchor="middle" x="122" y="-99.8" font-family="Times,serif" font-size="14.00">MpgpFormControlErrorModule</text>
</g>
<!-- MpgpFormControlErrorModule&#45;&gt;AccountModule -->
<g id="edge8" class="edge">
<title>MpgpFormControlErrorModule&#45;&gt;AccountModule</title>
<path fill="none" stroke="black" d="M122,-122.29C122,-144.21 122,-178 122,-178 122,-178 789.25,-178 789.25,-178"/>
<polygon fill="black" stroke="black" points="789.25,-181.5 799.25,-178 789.25,-174.5 789.25,-181.5"/>
</g>
</g>
</svg>
