<?xml version="1.0" encoding="UTF-8" standalone="no"?>
<!DOCTYPE svg PUBLIC "-//W3C//DTD SVG 1.1//EN"
 "http://www.w3.org/Graphics/SVG/1.1/DTD/svg11.dtd">
<!-- Generated by graphviz version 2.44.1 (20200629.0846)
 -->
<!-- Title: dependencies Pages: 1 -->
<svg width="504pt" height="211pt"
 viewBox="0.00 0.00 504.00 211.00" xmlns="http://www.w3.org/2000/svg" xmlns:xlink="http://www.w3.org/1999/xlink">
<g id="graph0" class="graph" transform="scale(1 1) rotate(0) translate(4 207)">
<title>dependencies</title>
<polygon fill="white" stroke="transparent" points="-4,4 -4,-207 500,-207 500,4 -4,4"/>
<text text-anchor="start" x="227.01" y="-42.4" font-family="sans-serif" font-weight="bold" font-size="14.00">Legend</text>
<polygon fill="#ffffb3" stroke="transparent" points="14,-10 14,-30 34,-30 34,-10 14,-10"/>
<text text-anchor="start" x="37.63" y="-15.4" font-family="sans-serif" font-size="14.00"> &#160;Declarations</text>
<polygon fill="#8dd3c7" stroke="transparent" points="127,-10 127,-30 147,-30 147,-10 127,-10"/>
<text text-anchor="start" x="150.73" y="-15.4" font-family="sans-serif" font-size="14.00"> &#160;Module</text>
<polygon fill="#80b1d3" stroke="transparent" points="213,-10 213,-30 233,-30 233,-10 213,-10"/>
<text text-anchor="start" x="236.78" y="-15.4" font-family="sans-serif" font-size="14.00"> &#160;Bootstrap</text>
<polygon fill="#fdb462" stroke="transparent" points="310,-10 310,-30 330,-30 330,-10 310,-10"/>
<text text-anchor="start" x="333.67" y="-15.4" font-family="sans-serif" font-size="14.00"> &#160;Providers</text>
<polygon fill="#fb8072" stroke="transparent" points="406,-10 406,-30 426,-30 426,-10 406,-10"/>
<text text-anchor="start" x="429.73" y="-15.4" font-family="sans-serif" font-size="14.00"> &#160;Exports</text>
<g id="clust1" class="cluster">
<title>cluster_CoreModule</title>
<polygon fill="none" stroke="black" stroke-dasharray="1,5" points="87,-70 87,-195 409,-195 409,-70 87,-70"/>
</g>
<g id="clust6" class="cluster">
<title>cluster_CoreModule_providers</title>
<polygon fill="none" stroke="black" points="95,-78 95,-130 401,-130 401,-78 95,-78"/>
</g>
<!-- AccountService -->
<g id="node1" class="node">
<title>AccountService</title>
<ellipse fill="#fdb462" stroke="black" cx="320" cy="-104" rx="72.91" ry="18"/>
<text text-anchor="middle" x="320" y="-99.8" font-family="Times,serif" font-size="14.00">AccountService</text>
</g>
<!-- CoreModule -->
<g id="node3" class="node">
<title>CoreModule</title>
<polygon fill="#8dd3c7" stroke="black" points="286.26,-187 283.26,-191 262.26,-191 259.26,-187 199.74,-187 199.74,-151 286.26,-151 286.26,-187"/>
<text text-anchor="middle" x="243" y="-164.8" font-family="Times,serif" font-size="14.00">CoreModule</text>
</g>
<!-- AccountService&#45;&gt;CoreModule -->
<g id="edge1" class="edge">
<title>AccountService&#45;&gt;CoreModule</title>
<path fill="none" stroke="black" d="M266.84,-116.53C266.84,-116.53 266.84,-140.85 266.84,-140.85"/>
<polygon fill="black" stroke="black" points="263.34,-140.85 266.84,-150.85 270.34,-140.85 263.34,-140.85"/>
</g>
<!-- ErrorsLogger -->
<g id="node2" class="node">
<title>ErrorsLogger</title>
<ellipse fill="#fdb462" stroke="black" cx="166" cy="-104" rx="63.1" ry="18"/>
<text text-anchor="middle" x="166" y="-99.8" font-family="Times,serif" font-size="14.00">ErrorsLogger</text>
</g>
<!-- ErrorsLogger&#45;&gt;CoreModule -->
<g id="edge2" class="edge">
<title>ErrorsLogger&#45;&gt;CoreModule</title>
<path fill="none" stroke="black" d="M214.33,-115.62C214.33,-115.62 214.33,-140.85 214.33,-140.85"/>
<polygon fill="black" stroke="black" points="210.84,-140.85 214.33,-150.85 217.84,-140.85 210.84,-140.85"/>
</g>
</g>
</svg>
