<?xml version="1.0" encoding="UTF-8" standalone="no"?>
<!DOCTYPE svg PUBLIC "-//W3C//DTD SVG 1.1//EN"
 "http://www.w3.org/Graphics/SVG/1.1/DTD/svg11.dtd">
<!-- Generated by graphviz version 2.44.1 (20200629.0846)
 -->
<!-- Title: dependencies Pages: 1 -->
<svg width="1381pt" height="211pt"
 viewBox="0.00 0.00 1381.00 211.00" xmlns="http://www.w3.org/2000/svg" xmlns:xlink="http://www.w3.org/1999/xlink">
<g id="graph0" class="graph" transform="scale(1 1) rotate(0) translate(4 207)">
<title>dependencies</title>
<polygon fill="white" stroke="transparent" points="-4,4 -4,-207 1377,-207 1377,4 -4,4"/>
<text text-anchor="start" x="665.51" y="-42.4" font-family="sans-serif" font-weight="bold" font-size="14.00">Legend</text>
<polygon fill="#ffffb3" stroke="transparent" points="452.5,-10 452.5,-30 472.5,-30 472.5,-10 452.5,-10"/>
<text text-anchor="start" x="476.13" y="-15.4" font-family="sans-serif" font-size="14.00"> &#160;Declarations</text>
<polygon fill="#8dd3c7" stroke="transparent" points="565.5,-10 565.5,-30 585.5,-30 585.5,-10 565.5,-10"/>
<text text-anchor="start" x="589.23" y="-15.4" font-family="sans-serif" font-size="14.00"> &#160;Module</text>
<polygon fill="#80b1d3" stroke="transparent" points="651.5,-10 651.5,-30 671.5,-30 671.5,-10 651.5,-10"/>
<text text-anchor="start" x="675.28" y="-15.4" font-family="sans-serif" font-size="14.00"> &#160;Bootstrap</text>
<polygon fill="#fdb462" stroke="transparent" points="748.5,-10 748.5,-30 768.5,-30 768.5,-10 748.5,-10"/>
<text text-anchor="start" x="772.17" y="-15.4" font-family="sans-serif" font-size="14.00"> &#160;Providers</text>
<polygon fill="#fb8072" stroke="transparent" points="844.5,-10 844.5,-30 864.5,-30 864.5,-10 844.5,-10"/>
<text text-anchor="start" x="868.23" y="-15.4" font-family="sans-serif" font-size="14.00"> &#160;Exports</text>
<g id="clust1" class="cluster">
<title>cluster_GeneralModule</title>
<polygon fill="none" stroke="black" stroke-dasharray="1,5" points="8,-70 8,-195 1365,-195 1365,-70 8,-70"/>
</g>
<g id="clust2" class="cluster">
<title>cluster_GeneralModule_declarations</title>
<polygon fill="none" stroke="black" points="188,-78 188,-130 1357,-130 1357,-78 188,-78"/>
</g>
<g id="clust9" class="cluster">
<title>cluster_GeneralModule_imports</title>
<polygon fill="none" stroke="black" points="16,-78 16,-130 180,-130 180,-78 16,-78"/>
</g>
<!-- MainErrorComponent -->
<g id="node1" class="node">
<title>MainErrorComponent</title>
<polygon fill="#ffffb3" stroke="black" points="1349.42,-122 1208.58,-122 1208.58,-86 1349.42,-86 1349.42,-122"/>
<text text-anchor="middle" x="1279" y="-99.8" font-family="Times,serif" font-size="14.00">MainErrorComponent</text>
</g>
<!-- GeneralModule -->
<g id="node7" class="node">
<title>GeneralModule</title>
<polygon fill="#8dd3c7" stroke="black" points="789.85,-187 786.85,-191 765.85,-191 762.85,-187 686.15,-187 686.15,-151 789.85,-151 789.85,-187"/>
<text text-anchor="middle" x="738" y="-164.8" font-family="Times,serif" font-size="14.00">GeneralModule</text>
</g>
<!-- MainErrorComponent&#45;&gt;GeneralModule -->
<g id="edge1" class="edge">
<title>MainErrorComponent&#45;&gt;GeneralModule</title>
<path fill="none" stroke="black" d="M1279,-122.29C1279,-144.21 1279,-178 1279,-178 1279,-178 799.87,-178 799.87,-178"/>
<polygon fill="black" stroke="black" points="799.87,-174.5 789.87,-178 799.87,-181.5 799.87,-174.5"/>
</g>
<!-- MainRootComponent -->
<g id="node2" class="node">
<title>MainRootComponent</title>
<polygon fill="#ffffb3" stroke="black" points="1191.11,-122 1052.89,-122 1052.89,-86 1191.11,-86 1191.11,-122"/>
<text text-anchor="middle" x="1122" y="-99.8" font-family="Times,serif" font-size="14.00">MainRootComponent</text>
</g>
<!-- MainRootComponent&#45;&gt;GeneralModule -->
<g id="edge2" class="edge">
<title>MainRootComponent&#45;&gt;GeneralModule</title>
<path fill="none" stroke="black" d="M1122,-122.11C1122,-141.34 1122,-169 1122,-169 1122,-169 800.19,-169 800.19,-169"/>
<polygon fill="black" stroke="black" points="800.19,-165.5 790.19,-169 800.19,-172.5 800.19,-165.5"/>
</g>
<!-- MainScrollToTopComponent -->
<g id="node3" class="node">
<title>MainScrollToTopComponent</title>
<polygon fill="#ffffb3" stroke="black" points="1035.43,-122 852.57,-122 852.57,-86 1035.43,-86 1035.43,-122"/>
<text text-anchor="middle" x="944" y="-99.8" font-family="Times,serif" font-size="14.00">MainScrollToTopComponent</text>
</g>
<!-- MainScrollToTopComponent&#45;&gt;GeneralModule -->
<g id="edge3" class="edge">
<title>MainScrollToTopComponent&#45;&gt;GeneralModule</title>
<path fill="none" stroke="black" d="M944,-122.03C944,-138.4 944,-160 944,-160 944,-160 799.98,-160 799.98,-160"/>
<polygon fill="black" stroke="black" points="799.98,-156.5 789.98,-160 799.98,-163.5 799.98,-156.5"/>
</g>
<!-- MainToolbarAvatarComponent -->
<g id="node4" class="node">
<title>MainToolbarAvatarComponent</title>
<polygon fill="#ffffb3" stroke="black" points="834.79,-122 641.21,-122 641.21,-86 834.79,-86 834.79,-122"/>
<text text-anchor="middle" x="738" y="-99.8" font-family="Times,serif" font-size="14.00">MainToolbarAvatarComponent</text>
</g>
<!-- MainToolbarAvatarComponent&#45;&gt;GeneralModule -->
<g id="edge4" class="edge">
<title>MainToolbarAvatarComponent&#45;&gt;GeneralModule</title>
<path fill="none" stroke="black" d="M738,-122.11C738,-122.11 738,-140.99 738,-140.99"/>
<polygon fill="black" stroke="black" points="734.5,-140.99 738,-150.99 741.5,-140.99 734.5,-140.99"/>
</g>
<!-- MainToolbarMailComponent -->
<g id="node5" class="node">
<title>MainToolbarMailComponent</title>
<polygon fill="#ffffb3" stroke="black" points="623.64,-122 442.36,-122 442.36,-86 623.64,-86 623.64,-122"/>
<text text-anchor="middle" x="533" y="-99.8" font-family="Times,serif" font-size="14.00">MainToolbarMailComponent</text>
</g>
<!-- MainToolbarMailComponent&#45;&gt;GeneralModule -->
<g id="edge5" class="edge">
<title>MainToolbarMailComponent&#45;&gt;GeneralModule</title>
<path fill="none" stroke="black" d="M533,-122.03C533,-138.4 533,-160 533,-160 533,-160 676,-160 676,-160"/>
<polygon fill="black" stroke="black" points="676,-163.5 686,-160 676,-156.5 676,-163.5"/>
</g>
<!-- MainToolbarNotificationsComponent -->
<g id="node6" class="node">
<title>MainToolbarNotificationsComponent</title>
<polygon fill="#ffffb3" stroke="black" points="424.29,-122 195.71,-122 195.71,-86 424.29,-86 424.29,-122"/>
<text text-anchor="middle" x="310" y="-99.8" font-family="Times,serif" font-size="14.00">MainToolbarNotificationsComponent</text>
</g>
<!-- MainToolbarNotificationsComponent&#45;&gt;GeneralModule -->
<g id="edge6" class="edge">
<title>MainToolbarNotificationsComponent&#45;&gt;GeneralModule</title>
<path fill="none" stroke="black" d="M310,-122.11C310,-141.34 310,-169 310,-169 310,-169 675.95,-169 675.95,-169"/>
<polygon fill="black" stroke="black" points="675.95,-172.5 685.95,-169 675.95,-165.5 675.95,-172.5"/>
</g>
<!-- GeneralRoutingModule -->
<g id="node8" class="node">
<title>GeneralRoutingModule</title>
<polygon fill="#8dd3c7" stroke="black" points="172.47,-122 169.47,-126 148.47,-126 145.47,-122 23.53,-122 23.53,-86 172.47,-86 172.47,-122"/>
<text text-anchor="middle" x="98" y="-99.8" font-family="Times,serif" font-size="14.00">GeneralRoutingModule</text>
</g>
<!-- GeneralRoutingModule&#45;&gt;GeneralModule -->
<g id="edge7" class="edge">
<title>GeneralRoutingModule&#45;&gt;GeneralModule</title>
<path fill="none" stroke="black" d="M98,-122.29C98,-144.21 98,-178 98,-178 98,-178 675.9,-178 675.9,-178"/>
<polygon fill="black" stroke="black" points="675.9,-181.5 685.9,-178 675.9,-174.5 675.9,-181.5"/>
</g>
</g>
</svg>
