<?xml version="1.0" encoding="UTF-8" standalone="no"?>
<!DOCTYPE svg PUBLIC "-//W3C//DTD SVG 1.1//EN"
 "http://www.w3.org/Graphics/SVG/1.1/DTD/svg11.dtd">
<!-- Generated by graphviz version 2.44.1 (20200629.0846)
 -->
<!-- Title: dependencies Pages: 1 -->
<svg width="1375pt" height="211pt"
 viewBox="0.00 0.00 1375.00 211.00" xmlns="http://www.w3.org/2000/svg" xmlns:xlink="http://www.w3.org/1999/xlink">
<g id="graph0" class="graph" transform="scale(1 1) rotate(0) translate(4 207)">
<title>dependencies</title>
<polygon fill="white" stroke="transparent" points="-4,4 -4,-207 1371,-207 1371,4 -4,4"/>
<text text-anchor="start" x="662.51" y="-42.4" font-family="sans-serif" font-weight="bold" font-size="14.00">Legend</text>
<polygon fill="#ffffb3" stroke="transparent" points="449.5,-10 449.5,-30 469.5,-30 469.5,-10 449.5,-10"/>
<text text-anchor="start" x="473.13" y="-15.4" font-family="sans-serif" font-size="14.00"> &#160;Declarations</text>
<polygon fill="#8dd3c7" stroke="transparent" points="562.5,-10 562.5,-30 582.5,-30 582.5,-10 562.5,-10"/>
<text text-anchor="start" x="586.23" y="-15.4" font-family="sans-serif" font-size="14.00"> &#160;Module</text>
<polygon fill="#80b1d3" stroke="transparent" points="648.5,-10 648.5,-30 668.5,-30 668.5,-10 648.5,-10"/>
<text text-anchor="start" x="672.28" y="-15.4" font-family="sans-serif" font-size="14.00"> &#160;Bootstrap</text>
<polygon fill="#fdb462" stroke="transparent" points="745.5,-10 745.5,-30 765.5,-30 765.5,-10 745.5,-10"/>
<text text-anchor="start" x="769.17" y="-15.4" font-family="sans-serif" font-size="14.00"> &#160;Providers</text>
<polygon fill="#fb8072" stroke="transparent" points="841.5,-10 841.5,-30 861.5,-30 861.5,-10 841.5,-10"/>
<text text-anchor="start" x="865.23" y="-15.4" font-family="sans-serif" font-size="14.00"> &#160;Exports</text>
<g id="clust1" class="cluster">
<title>cluster_ProfileModule</title>
<polygon fill="none" stroke="black" stroke-dasharray="1,5" points="8,-70 8,-195 1359,-195 1359,-70 8,-70"/>
</g>
<g id="clust2" class="cluster">
<title>cluster_ProfileModule_declarations</title>
<polygon fill="none" stroke="black" points="182,-78 182,-130 1351,-130 1351,-78 182,-78"/>
</g>
<g id="clust9" class="cluster">
<title>cluster_ProfileModule_imports</title>
<polygon fill="none" stroke="black" points="16,-78 16,-130 174,-130 174,-78 16,-78"/>
</g>
<!-- MainErrorComponent -->
<g id="node1" class="node">
<title>MainErrorComponent</title>
<polygon fill="#ffffb3" stroke="black" points="1343.42,-122 1202.58,-122 1202.58,-86 1343.42,-86 1343.42,-122"/>
<text text-anchor="middle" x="1273" y="-99.8" font-family="Times,serif" font-size="14.00">MainErrorComponent</text>
</g>
<!-- ProfileModule -->
<g id="node7" class="node">
<title>ProfileModule</title>
<polygon fill="#8dd3c7" stroke="black" points="780.65,-187 777.65,-191 756.65,-191 753.65,-187 683.35,-187 683.35,-151 780.65,-151 780.65,-187"/>
<text text-anchor="middle" x="732" y="-164.8" font-family="Times,serif" font-size="14.00">ProfileModule</text>
</g>
<!-- MainErrorComponent&#45;&gt;ProfileModule -->
<g id="edge1" class="edge">
<title>MainErrorComponent&#45;&gt;ProfileModule</title>
<path fill="none" stroke="black" d="M1273,-122.29C1273,-144.21 1273,-178 1273,-178 1273,-178 790.96,-178 790.96,-178"/>
<polygon fill="black" stroke="black" points="790.96,-174.5 780.96,-178 790.96,-181.5 790.96,-174.5"/>
</g>
<!-- MainRootComponent -->
<g id="node2" class="node">
<title>MainRootComponent</title>
<polygon fill="#ffffb3" stroke="black" points="1185.11,-122 1046.89,-122 1046.89,-86 1185.11,-86 1185.11,-122"/>
<text text-anchor="middle" x="1116" y="-99.8" font-family="Times,serif" font-size="14.00">MainRootComponent</text>
</g>
<!-- MainRootComponent&#45;&gt;ProfileModule -->
<g id="edge2" class="edge">
<title>MainRootComponent&#45;&gt;ProfileModule</title>
<path fill="none" stroke="black" d="M1116,-122.11C1116,-141.34 1116,-169 1116,-169 1116,-169 791.02,-169 791.02,-169"/>
<polygon fill="black" stroke="black" points="791.02,-165.5 781.02,-169 791.02,-172.5 791.02,-165.5"/>
</g>
<!-- MainScrollToTopComponent -->
<g id="node3" class="node">
<title>MainScrollToTopComponent</title>
<polygon fill="#ffffb3" stroke="black" points="1029.43,-122 846.57,-122 846.57,-86 1029.43,-86 1029.43,-122"/>
<text text-anchor="middle" x="938" y="-99.8" font-family="Times,serif" font-size="14.00">MainScrollToTopComponent</text>
</g>
<!-- MainScrollToTopComponent&#45;&gt;ProfileModule -->
<g id="edge3" class="edge">
<title>MainScrollToTopComponent&#45;&gt;ProfileModule</title>
<path fill="none" stroke="black" d="M938,-122.03C938,-138.4 938,-160 938,-160 938,-160 790.82,-160 790.82,-160"/>
<polygon fill="black" stroke="black" points="790.82,-156.5 780.82,-160 790.82,-163.5 790.82,-156.5"/>
</g>
<!-- MainToolbarAvatarComponent -->
<g id="node4" class="node">
<title>MainToolbarAvatarComponent</title>
<polygon fill="#ffffb3" stroke="black" points="828.79,-122 635.21,-122 635.21,-86 828.79,-86 828.79,-122"/>
<text text-anchor="middle" x="732" y="-99.8" font-family="Times,serif" font-size="14.00">MainToolbarAvatarComponent</text>
</g>
<!-- MainToolbarAvatarComponent&#45;&gt;ProfileModule -->
<g id="edge4" class="edge">
<title>MainToolbarAvatarComponent&#45;&gt;ProfileModule</title>
<path fill="none" stroke="black" d="M732,-122.11C732,-122.11 732,-140.99 732,-140.99"/>
<polygon fill="black" stroke="black" points="728.5,-140.99 732,-150.99 735.5,-140.99 728.5,-140.99"/>
</g>
<!-- MainToolbarMailComponent -->
<g id="node5" class="node">
<title>MainToolbarMailComponent</title>
<polygon fill="#ffffb3" stroke="black" points="617.64,-122 436.36,-122 436.36,-86 617.64,-86 617.64,-122"/>
<text text-anchor="middle" x="527" y="-99.8" font-family="Times,serif" font-size="14.00">MainToolbarMailComponent</text>
</g>
<!-- MainToolbarMailComponent&#45;&gt;ProfileModule -->
<g id="edge5" class="edge">
<title>MainToolbarMailComponent&#45;&gt;ProfileModule</title>
<path fill="none" stroke="black" d="M527,-122.03C527,-138.4 527,-160 527,-160 527,-160 673.16,-160 673.16,-160"/>
<polygon fill="black" stroke="black" points="673.16,-163.5 683.16,-160 673.16,-156.5 673.16,-163.5"/>
</g>
<!-- MainToolbarNotificationsComponent -->
<g id="node6" class="node">
<title>MainToolbarNotificationsComponent</title>
<polygon fill="#ffffb3" stroke="black" points="418.29,-122 189.71,-122 189.71,-86 418.29,-86 418.29,-122"/>
<text text-anchor="middle" x="304" y="-99.8" font-family="Times,serif" font-size="14.00">MainToolbarNotificationsComponent</text>
</g>
<!-- MainToolbarNotificationsComponent&#45;&gt;ProfileModule -->
<g id="edge6" class="edge">
<title>MainToolbarNotificationsComponent&#45;&gt;ProfileModule</title>
<path fill="none" stroke="black" d="M304,-122.11C304,-141.34 304,-169 304,-169 304,-169 673.32,-169 673.32,-169"/>
<polygon fill="black" stroke="black" points="673.32,-172.5 683.32,-169 673.32,-165.5 673.32,-172.5"/>
</g>
<!-- ProfileRoutingModule -->
<g id="node8" class="node">
<title>ProfileRoutingModule</title>
<polygon fill="#8dd3c7" stroke="black" points="166.27,-122 163.27,-126 142.27,-126 139.27,-122 23.73,-122 23.73,-86 166.27,-86 166.27,-122"/>
<text text-anchor="middle" x="95" y="-99.8" font-family="Times,serif" font-size="14.00">ProfileRoutingModule</text>
</g>
<!-- ProfileRoutingModule&#45;&gt;ProfileModule -->
<g id="edge7" class="edge">
<title>ProfileRoutingModule&#45;&gt;ProfileModule</title>
<path fill="none" stroke="black" d="M95,-122.29C95,-144.21 95,-178 95,-178 95,-178 673.34,-178 673.34,-178"/>
<polygon fill="black" stroke="black" points="673.34,-181.5 683.34,-178 673.34,-174.5 673.34,-181.5"/>
</g>
</g>
</svg>
